<svg width="26" height="26" viewBox="0 0 65 76" fill="none" xmlns="http://www.w3.org/2000/svg">
<path fill-rule="evenodd" clip-rule="evenodd" d="M1.39438 24.8338C0.125 27.5937 0.125 30.7335 0.125 37.0132V56.625C0.125 65.3459 0.125 69.7064 2.83426 72.4157C5.41766 74.9991 9.50243 75.1191 17.4375 75.1247V52.0002C17.4375 47.5129 21.0752 43.8752 25.5625 43.8752H39.4375C43.9248 43.8752 47.5625 47.5129 47.5625 52.0002V75.1247C55.4976 75.1191 59.5823 74.9991 62.1657 72.4157C64.875 69.7064 64.875 65.3459 64.875 56.625V37.0132C64.875 30.7335 64.875 27.5937 63.6056 24.8338C62.3362 22.0739 59.9523 20.0305 55.1845 15.9438L50.5595 11.9795C41.9416 4.59277 37.6327 0.899414 32.5 0.899414C27.3673 0.899414 23.0584 4.59278 14.4405 11.9795L9.81554 15.9438C5.04769 20.0305 2.66377 22.0739 1.39438 24.8338ZM40.5625 75.125V52.0002C40.5625 51.3789 40.0588 50.8752 39.4375 50.8752H25.5625C24.9412 50.8752 24.4375 51.3789 24.4375 52.0002V75.125H40.5625Z" fill="#C5C7C2"/>
</svg>
