<svg width="158" height="158" viewBox="0 0 158 158" fill="none" xmlns="http://www.w3.org/2000/svg">
<circle cx="78.745" cy="79.2552" r="78.536" fill="#00BFFF"/>
<path d="M110.909 59.1635H98.8937L91.7025 51.9011C91.7025 51.9011 91.6669 51.8655 91.6491 51.8655L91.6135 51.8299C90.5454 50.7619 89.1036 50.0854 87.466 50.0854H72.514C70.7696 50.0854 69.221 50.8331 68.1352 52.0257V52.0435L61.1042 59.1635H48.8221C45.5113 59.1635 42.8413 61.7623 42.8413 65.0731V101.047C42.8413 104.358 45.5113 107.046 48.8221 107.046H110.909C114.202 107.046 116.89 104.358 116.89 101.047V65.0731C116.89 61.7623 114.202 59.1635 110.909 59.1635ZM79.8654 98.0566C70.8052 98.0566 63.4182 90.6518 63.4182 81.5737C63.4182 72.4779 70.8052 65.0909 79.8654 65.0909C88.9434 65.0909 96.3127 72.4779 96.3127 81.5737C96.3127 90.6518 88.9434 98.0566 79.8654 98.0566ZM109.787 68.6865C108.417 68.6865 107.295 67.5651 107.295 66.1767C107.295 64.7883 108.417 63.6669 109.787 63.6669C111.158 63.6669 112.279 64.7883 112.279 66.1767C112.279 67.5651 111.158 68.6865 109.787 68.6865Z" fill="white"/>
<path d="M79.8668 69.1133C72.996 69.1133 67.4424 74.6847 67.4424 81.5733C67.4424 88.4441 72.996 94.0334 79.8668 94.0334C86.7198 94.0334 92.2913 88.4619 92.2913 81.5733C92.2913 74.6847 86.7198 69.1133 79.8668 69.1133Z" fill="white"/>
</svg>
